<?xml version="1.0" encoding="utf-8"?>
<!-- Generator: Adobe Illustrator 23.0.1, SVG Export Plug-In . SVG Version: 6.00 Build 0)  -->
<svg version="1.1" id="Layer_1" xmlns="http://www.w3.org/2000/svg" xmlns:xlink="http://www.w3.org/1999/xlink" x="0px" y="0px"
	 viewBox="0 0 655.4 132" style="enable-background:new 0 0 655.4 132;" xml:space="preserve">
<style type="text/css">
	.st0{fill:#434351;}
	.st1{fill:url(#Head_1_);}
	.st2{fill:#FFFFFF;}
	.st3{fill:url(#path-3_2_);}
	.st4{fill:none;stroke:#8E8E8E;stroke-width:2;stroke-miterlimit:10;}
	.st5{fill:#9E1F63;}
	.st6{fill:#FF4724;}
	.st7{fill:#662D91;}
</style>
<title>logo</title>
<desc>Created with Sketch.</desc>
<g>
	<g id="Group-4" transform="translate(153.000000, 26.000000)">
		<path id="Shape" class="st0" d="M-4.8,45.5V0.2h4.3C3.1,0.2,6,3.1,6,6.6v20.2c7-6.2,12.9-8.7,20.8-8.8C41.9,17.7,55,28.9,56.3,44
			c1.5,18-11.6,31.5-28.7,31.5C8.8,75.4-4.8,63.8-4.8,45.5z M5.8,49.1c1.1,9.4,10,17.1,19.5,17.3C37.6,66.6,46,58.6,46,46.7
			S37.7,27,25.8,27C13,27,4.3,36.2,5.8,49.1z"/>
		<path id="Shape_1_" class="st0" d="M74.1,19v8.1c6.8-7.5,10.8-9.5,18.7-9.5c2.3,0,4.6,0.2,6.9,0.6v10.7c-2.4-0.7-4.9-1-7.4-1
			c-5.7,0-10.5,1.9-14.1,5.4c-3.1,3.1-4,5.5-4,10.4v29.9H63V19H74.1z"/>
		<path id="Shape_2_" class="st0" d="M102.3,37.1c0.6-5.3,1.6-8.2,3.9-10.9c4.6-5.6,12.8-8.5,24.5-8.5c9.3,0,16,1.4,20.7,4.5
			c3.9,2.5,5.5,6.3,5.5,12.9v24.2c0,5.3,1.4,7.2,5.2,7.1c0.8,0,1.7-0.1,2.5-0.2v7.3c-1.9,0.6-3.9,0.9-5.8,0.9
			c-7,0-10.2-2.1-12.4-8.2c-6.9,6.3-14,9-24.2,9c-13.6,0-22-6.2-22-16.3c-0.1-5.7,3.3-11,8.6-13.3c4.1-1.8,6.6-2.3,18.4-3.5
			c10.1-1,11.8-1.2,14.7-2.1c3.1-1,4.5-2.7,4.5-5.4c0-5.9-4.9-8.5-15.2-8.5c-9.7,0-14.8,1.9-16.8,6.9c-1,2.5-3.4,4.2-6.1,4.2
			L102.3,37.1z M146.4,46.4c-7.1,2.1-14.3,3.4-21.7,4c-10,1-13.1,2.9-13.1,7.8c0,5.5,4.6,8.4,13.6,8.4c7.4,0,13.1-1.9,17.1-5.5
			c3.2-3,4-5.1,4-10.3L146.4,46.4L146.4,46.4z"/>
		<path id="Shape_3_" class="st0" d="M191.5,73.5h-2.9c-2.5,0-4.8-1.4-5.9-3.7l-24-50.8h6.7c3.9,0,7.4,2.2,9,5.8l16,36.5L207,24.7
			c1.6-3.5,5.1-5.7,9-5.7h6.1l-24.6,50.9C196.3,72.2,194,73.6,191.5,73.5z"/>
		<path id="Shape_4_" class="st0" d="M229.6,49.5c1.1,10.5,9.4,17,21.6,17c7,0,12.2-2.1,15.4-6.2c1.9-2.4,4.8-3.7,7.8-3.7h6.5
			C275.2,68.9,265.2,75,250.2,75c-18.7,0-31.4-11.4-31.4-28.4s12.9-29,31.6-29c13.5,0,24.4,6.1,28.8,16.3c1.9,4.7,2.7,8.8,2.7,15.6
			H229.6z M270.6,41c-2.5-9.6-10-15-20.3-15s-17.8,5.4-20.4,15H270.6z"/>
	</g>
	<g id="build-icons_x2F_Stable">
		<g id="Logo" transform="translate(10.381810, 0.000000)">
			
				<linearGradient id="Head_1_" gradientUnits="userSpaceOnUse" x1="470.3938" y1="101.1055" x2="471.3946" y2="101.1055" gradientTransform="matrix(112.3123 0 0 -131.86 -52836.0117 13397.7178)">
				<stop  offset="0" style="stop-color:#FF5500"/>
				<stop  offset="0.4099" style="stop-color:#FF5500"/>
				<stop  offset="0.582" style="stop-color:#FF2000"/>
				<stop  offset="1" style="stop-color:#FF2000"/>
			</linearGradient>
			<path id="Head" class="st1" d="M103.4,31.6l3.1-7.6c0,0-3.9-4.2-8.7-9c-4.8-4.8-14.9-2-14.9-2L71.4,0H51.2H30.9L19.4,13.1
				c0,0-10.1-2.8-14.9,2s-8.7,9-8.7,9l3.1,7.6L-5,42.9c0,0,11.6,43.8,12.9,49.2c2.7,10.5,4.5,14.6,12.1,20s21.3,14.6,23.6,16
				c2.2,1.4,5.1,3.8,7.6,3.8s5.3-2.4,7.6-3.8c2.2-1.4,16-10.7,23.6-16s9.4-9.4,12.1-20c1.4-5.4,12.9-49.2,12.9-49.2L103.4,31.6z"/>
			<path id="Face" class="st2" d="M79.7,21.4c0,0,14.8,17.9,14.8,21.8S92.6,48,90.7,50S80.6,60.7,79.6,61.8c-1.1,1.1-3.2,2.8-2,5.9
				c1.3,3,3.2,6.9,1.1,10.9c-2.1,3.9-5.7,6.6-8,6.1c-2.3-0.4-7.8-3.3-9.8-4.6c-2-1.3-8.3-6.5-8.3-8.5s6.6-5.6,7.8-6.4s6.7-4,6.8-5.2
				s0.1-1.6-1.6-4.7c-1.6-3.1-4.6-7.2-4.1-9.9s5.2-4.1,8.6-5.4c3.4-1.3,9.9-3.7,10.7-4.1c0.8-0.4,0.6-0.7-1.9-1
				c-2.5-0.2-9.4-1.2-12.6-0.3s-8.5,2.2-9,2.9c-0.4,0.7-0.8,0.7-0.4,3.2c0.4,2.4,2.8,14.2,3,16.3s0.7,3.5-1.6,4
				c-2.2,0.5-6,1.4-7.3,1.4s-5.1-0.9-7.3-1.4s-1.8-1.9-1.6-4s2.5-13.8,3-16.3c0.4-2.4,0.1-2.5-0.4-3.2c-0.4-0.7-5.8-2-9-2.9
				s-10.1,0-12.6,0.3c-2.5,0.2-2.7,0.6-1.9,1s7.3,2.8,10.7,4.1s8.1,2.7,8.6,5.4s-2.4,6.8-4.1,9.9c-1.6,3.1-1.7,3.4-1.6,4.7
				c0.1,1.2,5.6,4.4,6.8,5.2s7.8,4.4,7.8,6.4s-6.3,7.2-8.3,8.5s-7.4,4.1-9.8,4.6c-2.3,0.4-5.9-2.2-8-6.1s-0.2-7.8,1.1-10.9
				c1.3-3-0.9-4.7-2-5.9c-0.8-1.2-8.9-9.9-10.8-11.8c-1.9-2-3.7-3-3.7-6.8s14.8-21.8,14.8-21.8s12.5,2.4,14.2,2.4s5.3-1.4,8.7-2.5
				s5.6-1.1,5.6-1.1s2.2,0,5.6,1.1s7,2.5,8.7,2.5C67.2,23.8,79.7,21.4,79.7,21.4z M68.6,89.9c0.9,0.6,0.4,1.7-0.5,2.2
				c-0.8,0.6-12.1,9.3-13.1,10.3c-1.1,1-2.7,2.5-3.8,2.5s-2.7-1.6-3.8-2.5c-1.1-1-12.3-9.7-13.1-10.3c-0.8-0.6-1.4-1.7-0.5-2.2
				c0.9-0.6,3.8-2,7.7-4.1c4-2.1,8.9-3.8,9.7-3.8s5.7,1.7,9.7,3.8C64.8,87.9,67.6,89.4,68.6,89.9z"/>
			<g id="Top-Head">
				
					<linearGradient id="path-3_2_" gradientUnits="userSpaceOnUse" x1="469.5016" y1="99.3105" x2="470.4802" y2="99.3105" gradientTransform="matrix(93.2192 0 0 -23.7599 -43760.0195 2371.5078)">
					<stop  offset="0" style="stop-color:#FF452A"/>
					<stop  offset="1" style="stop-color:#FF2000"/>
				</linearGradient>
				<path id="path-3_1_" class="st3" d="M82.9,13.1L71.4,0H51.2H30.9L19.4,13.1c0,0-10.1-2.8-14.9,2c0,0,13.5-1.2,18.1,6.3
					c0,0,12.5,2.4,14.2,2.4s5.3-1.4,8.7-2.5s5.6-1.1,5.6-1.1s2.2,0,5.6,1.1s7,2.5,8.7,2.5s14.2-2.4,14.2-2.4
					c4.6-7.5,18.1-6.3,18.1-6.3C93,10.3,82.9,13.1,82.9,13.1"/>
			</g>
		</g>
	</g>
</g>
<line class="st4" x1="478.7" y1="11.9" x2="478.7" y2="120.1"/>
<g>
	<g transform="translate(2.421429, 9.685714)">
		<path class="st5" d="M584.8-1.5v40.4L609,80.8l35.1,20.4c0.3-0.6,0.3-1.3-0.2-2.2l-28.7-49.7L586.5-0.2
			C586-1.1,585.4-1.5,584.8-1.5"/>
		<path class="st6" d="M525.5,101.2l35.1-20.4l24.2-41.9V-1.5c-0.6,0-1.3,0.4-1.8,1.3l-28.7,49.7l-28.7,49.7
			C525.2,99.9,525.2,100.7,525.5,101.2"/>
		<path class="st7" d="M644,101.2l-35-20.4h-48.4l-35.1,20.4c0.3,0.6,1,0.9,2,0.9h114.6C643,102.1,643.7,101.8,644,101.2"/>
		<polygon class="st2" points="560.6,80.8 609,80.8 584.8,38.9 		"/>
	</g>
</g>
</svg>
