<?xml version="1.0" encoding="utf-8"?>
<svg width="66px" height="46px" viewBox="0 0 66 46" version="1.1" xmlns:xlink="http://www.w3.org/1999/xlink" xmlns="http://www.w3.org/2000/svg">
  <desc>Created with Lunacy</desc>
  <g id="color/American-Express">
    <g id="American-Express">
      <path d="M2.999 0L63.001 0C64.6573 0 66 1.3427 66 2.999L66 43.001C66 44.6573 64.6573 46 63.001 46L2.999 46C1.3427 46 0 44.6573 0 43.001L0 2.999C0 1.3427 1.3427 0 2.999 0Z" id="Rectangle-Copy-4" fill="#016FD0" stroke="none" />
      <g id="American_Express_logo_(2018)" transform="translate(0 11)">
        <path d="M0 10.2611L0 0L10.9223 0L12.0941 1.51957L13.3047 0L52.95 0L52.95 9.5534C52.95 9.5534 51.9132 10.2508 50.7141 10.2611L28.7617 10.2611L27.4405 8.64355L27.4405 10.2611L23.111 10.2611L23.111 7.49993C23.111 7.49993 22.5196 7.88535 21.241 7.88535L19.7673 7.88535L19.7673 10.2611L13.2121 10.2611L12.0419 8.7089L10.8538 10.2611L0 10.2611Z" transform="translate(12.82061 13.52921)" id="path3082" fill="#FFFFFF" stroke="none" />
        <path d="M4.2122e-15 5.71182L2.46302 0L6.72256 0L8.12035 3.19953L8.12035 0L13.4153 0L14.2475 2.31252L15.0542 0L38.8232 0L38.8232 1.16258C38.8232 1.16258 40.0727 0 42.1262 0L49.8384 0.0268108L51.2121 3.18446L51.2121 0L55.6432 0L56.8628 1.81382L56.8628 0L61.3345 0L61.3345 10.2611L56.8628 10.2611L55.694 8.44136L55.694 10.2611L49.1837 10.2611L48.529 8.64354L46.7788 8.64354L46.1348 10.2611L41.7197 10.2611C39.9527 10.2611 38.8232 9.12221 38.8232 9.12221L38.8232 10.2611L32.1663 10.2611L30.8451 8.64354L30.8451 10.2611L6.09153 10.2611L5.43728 8.64354L3.69267 8.64354L3.04304 10.2611L0 10.2611L4.2122e-15 5.71182Z" transform="translate(0.06586827 0.08368878)" id="path3080" fill="#FFFFFF" stroke="none" />
        <path d="M0 7.68315L3.32208 0L5.84063 0L9.15953 7.68315L6.94905 7.68315L6.33926 6.14464L2.77581 6.14464L2.16284 7.68315L0 7.68315ZM5.63737 4.47658L4.55118 1.7881L3.46182 4.47658L5.63737 4.47658Z" transform="translate(0.07857221 1.348658)" id="path3046" fill="#016FD0" fill-rule="evenodd" stroke="none" />
        <path d="M0 7.68316L0 1.48975e-14L3.07352 0.0113546L4.86119 4.96497L6.60604 0L9.65498 0L9.65498 7.68316L7.72399 7.68316L7.72399 2.02188L5.67709 7.68316L3.9836 7.68316L1.931 2.02188L1.931 7.68316L0 7.68316Z" transform="translate(9.466773 1.347361)" id="path3048" fill="#016FD0" stroke="none" />
        <path d="M0 7.68316L0 0L6.30115 0L6.30115 1.7186L1.95132 1.7186L1.95132 3.03283L6.19952 3.03283L6.19952 4.65033L1.95132 4.65033L1.95132 6.0151L6.30115 6.0151L6.30115 7.68316L0 7.68316Z" transform="translate(20.44296 1.347361)" id="path3050" fill="#016FD0" stroke="none" />
        <path d="M0 7.68315L0 0L4.2971 0C5.72093 0 6.99669 0.8758 6.99669 2.49261C6.99669 3.87475 5.92106 4.76499 4.87831 4.85252L7.41909 7.68315L5.05934 7.68315L2.74405 4.95361L1.931 4.95361L1.931 7.68315L0 7.68315ZM4.1383 1.7186L1.931 1.7186L1.931 3.3361L4.16689 3.3361C4.55392 3.3361 5.05299 3.03779 5.05299 2.52735C5.05299 2.1306 4.66781 1.7186 4.1383 1.7186Z" transform="translate(27.86206 1.348658)" id="path3052" fill="#016FD0" fill-rule="evenodd" stroke="none" />
        <path d="M1.97165 7.68316L0 7.68316L0 0L1.97165 0L1.97165 7.68316Z" transform="translate(35.64702 1.347361)" id="path3054" fill="#016FD0" stroke="none" />
        <path d="M3.73495 7.68316L3.30937 7.68316C1.25022 7.68316 0 6.06945 0 3.87317C0 1.62264 1.23622 0 3.83658 0L5.97084 0L5.97084 1.8197L3.75856 1.8197C2.70295 1.8197 1.9564 2.63914 1.9564 3.89213C1.9564 5.38006 2.81005 6.00499 4.03985 6.00499L4.548 6.00499L3.73495 7.68316Z" transform="translate(38.55876 1.347361)" id="path3056" fill="#016FD0" stroke="none" />
        <path d="M0 7.68315L3.32208 0L5.84063 0L9.15953 7.68315L6.94905 7.68315L6.33926 6.14464L2.77581 6.14464L2.16284 7.68315L0 7.68315ZM5.63737 4.47658L4.55118 1.7881L3.46182 4.47658L5.63737 4.47658Z" transform="translate(43.17346 1.348658)" id="path3058" fill="#016FD0" fill-rule="evenodd" stroke="none" />
        <path d="M0 7.68316L0 0L2.45503 0L5.58973 4.82725L5.58973 0L7.52073 0L7.52073 7.68316L5.14509 7.68316L1.931 2.72955L1.931 7.68316L0 7.68316Z" transform="translate(52.55849 1.347361)" id="path3060" fill="#016FD0" stroke="none" />
        <path d="M0 7.68316L0 0L6.30115 0L6.30115 1.7186L1.95132 1.7186L1.95132 3.03283L6.19951 3.03283L6.19951 4.65033L1.95132 4.65033L1.95132 6.0151L6.30115 6.0151L6.30115 7.68316L0 7.68316Z" transform="translate(14.14182 14.79288)" id="path3062" fill="#016FD0" stroke="none" />
        <path d="M0 7.68316L0 0L6.30115 0L6.30115 1.7186L1.95132 1.7186L1.95132 3.03283L6.17919 3.03283L6.17919 4.65033L1.95132 4.65033L1.95132 6.0151L6.30115 6.0151L6.30115 7.68316L0 7.68316Z" transform="translate(45.01744 14.79288)" id="path3064" fill="#016FD0" stroke="none" />
        <path d="M0.0730473 7.68316L3.14105 3.88896L0 0L2.4328 0L4.30345 2.40414L6.18046 0L8.51798 0L5.41822 3.84158L8.49187 7.68316L6.05945 7.68316L4.24311 5.31691L2.47091 7.68316L0.0730473 7.68316Z" transform="translate(20.61447 14.79288)" id="path3066" fill="#016FD0" stroke="none" />
        <path d="M0 7.68315L0 0L4.26534 0C6.01552 0 7.03797 1.12204 7.03797 2.58422C7.03797 4.34928 5.73433 5.25689 4.01444 5.25689L1.98181 5.25689L1.98181 7.68315L0 7.68315ZM4.12242 1.73755L1.98181 1.73755L1.98181 3.5067L4.11607 3.5067C4.68006 3.5067 5.07522 3.1349 5.07522 2.62213C5.07522 2.0763 4.67805 1.73755 4.12242 1.73755Z" transform="translate(29.33571 14.79418)" id="path3068" fill="#016FD0" fill-rule="evenodd" stroke="none" />
        <path d="M0 7.68316L0 0L4.2971 0C5.72093 0 6.99669 0.8758 6.99669 2.4926C6.99669 3.87475 5.92106 4.76498 4.87831 4.85252L7.41909 7.68316L5.05934 7.68316L2.74405 4.95361L1.931 4.95361L1.931 7.68316L0 7.68316ZM4.1383 1.7186L1.931 1.7186L1.931 3.3361L4.16689 3.3361C4.55392 3.3361 5.05299 3.03779 5.05299 2.52735C5.05299 2.1306 4.66781 1.7186 4.1383 1.7186Z" transform="translate(37.21215 14.79288)" id="path3072" fill="#016FD0" fill-rule="evenodd" stroke="none" />
        <path d="M0.245185 7.68316L0.245185 6.0151L4.10972 6.0151C4.68153 6.0151 4.92912 5.70774 4.92912 5.37063C4.92912 5.04764 4.68231 4.7211 4.10972 4.7211L2.36338 4.7211C0.8454 4.7211 0 3.80114 0 2.41994C0 1.18802 0.774181 0 3.02989 0L6.79025 0L5.9772 1.72871L2.72499 1.72871C2.10331 1.72871 1.91194 2.0532 1.91194 2.36308C1.91194 2.68159 2.14843 3.03283 2.62336 3.03283L4.45273 3.03283C6.1449 3.03283 6.87918 3.98761 6.87918 5.23794C6.87918 6.58217 6.06095 7.68316 4.36061 7.68316L0.245185 7.68316Z" transform="translate(51.96775 14.79288)" id="path3074" fill="#016FD0" stroke="none" />
        <path d="M0.245186 7.68316L0.245186 6.0151L4.10972 6.0151C4.68153 6.0151 4.92912 5.70774 4.92912 5.37063C4.92912 5.04764 4.68231 4.7211 4.10972 4.7211L2.36338 4.7211C0.8454 4.7211 0 3.80114 0 2.41994C0 1.18802 0.774181 0 3.02989 0L6.79024 0L5.97719 1.72871L2.72499 1.72871C2.10331 1.72871 1.91194 2.0532 1.91194 2.36308C1.91194 2.68159 2.14843 3.03283 2.62336 3.03283L4.45273 3.03283C6.1449 3.03283 6.87917 3.98761 6.87917 5.23794C6.87917 6.58217 6.06095 7.68316 4.3606 7.68316L0.245186 7.68316Z" transform="translate(59.05495 14.79288)" id="path3076" fill="#016FD0" stroke="none" />
      </g>
    </g>
  </g>
</svg>