<?xml version="1.0" encoding="utf-8"?>
<svg width="66px" height="46px" viewBox="0 0 66 46" version="1.1" xmlns:xlink="http://www.w3.org/1999/xlink" xmlns="http://www.w3.org/2000/svg">
  <desc>Created with Lunacy</desc>
  <defs>
    <linearGradient x1="1" y1="0.43984887" x2="0.0338051766" y2="0.43984887" id="gradient_1">
      <stop offset="0" stop-color="#43C311" />
      <stop offset="1" stop-color="#288C00" />
    </linearGradient>
    <linearGradient x1="0.002578125" y1="0.4975" x2="1.01257813" y2="0.4975" id="gradient_2">
      <stop offset="0" stop-color="#21469E" />
      <stop offset="1" stop-color="#1E81EB" />
    </linearGradient>
    <linearGradient x1="1" y1="0.5" x2="0" y2="0.5" id="gradient_3">
      <stop offset="0" stop-color="#F42D3E" />
      <stop offset="1" stop-color="#9C0017" />
    </linearGradient>
    <path d="M2.999 0L63.001 0C64.6573 0 66 1.3427 66 2.999L66 43.001C66 44.6573 64.6573 46 63.001 46L2.999 46C1.3427 46 0 44.6573 0 43.001L0 2.999C0 1.3427 1.3427 0 2.999 0Z" id="path_1" />
    <path d="M3.29335 0.0344859C3.52085 0.0085404 3.752 0.000648638 3.98378 0L4.04493 0C4.33077 0.000756744 4.61743 0.0111349 4.89941 0.0111349L7.75003 0.0111349C7.90124 0.0111349 8.05247 0.011219 8.20369 0.0113031C8.50614 0.0114713 8.80859 0.0116394 9.11095 0.0111349L9.12556 0.0111349L9.12556 18.6428C9.12556 18.746 9.12577 18.8492 9.12587 18.9523L9.12587 19.0205C9.12587 19.0671 9.12577 19.1138 9.12556 19.1604C9.12086 20.3651 8.57049 21.5129 7.63868 22.2349C6.9517 22.7673 6.14449 22.9951 5.2967 22.9951L0.134772 22.9951C0.128746 22.9951 0.117965 22.9959 0.105073 22.9968L0.105054 22.9968C0.0677103 22.9996 0.0126751 23.0037 0.00422067 22.9934C-0.00279531 22.9848 0.000555464 22.948 0.00278462 22.9236C0.00357275 22.9149 0.00422067 22.9078 0.00422067 22.904L0.00422067 15.2481C0.00422067 15.2408 0.00388953 15.2343 0.00359016 15.2285C0.00254504 15.208 0.00188711 15.1951 0.0170566 15.1855C0.0408379 15.1706 0.106005 15.1769 0.156252 15.1818C0.176563 15.1837 0.194436 15.1855 0.206152 15.1855L5.37267 15.1855C5.4112 15.1855 5.44975 15.1856 5.4883 15.1858C5.71472 15.1866 5.94125 15.1875 6.16641 15.1591C6.69185 15.0926 7.22271 14.8921 7.60299 14.4991C8.08585 14.0003 8.23821 13.2039 7.93933 12.5609C7.68679 12.0175 7.1577 11.6865 6.61264 11.5326C6.4344 11.4822 6.25167 11.4492 6.068 11.4309C6.06299 11.4305 6.05422 11.4305 6.044 11.4306C6.01906 11.4308 5.98514 11.4309 5.9771 11.423C5.94968 11.396 5.97777 11.3846 5.99716 11.3767C6.00043 11.3754 6.00344 11.3742 6.00591 11.373C6.04076 11.3562 6.09242 11.3578 6.13072 11.3495C6.19678 11.3355 6.26231 11.3189 6.32712 11.2997C6.91246 11.1259 7.42454 10.7072 7.59527 10.0827C7.7733 9.43227 7.56156 8.72515 7.04092 8.31521C6.67066 8.02376 6.2046 7.88873 5.74679 7.8456C5.3875 7.81183 5.02515 7.81503 4.66385 7.81821C4.55784 7.81915 4.45193 7.82008 4.34621 7.82008L0.0754966 7.82008C0.000487368 7.82008 0.000707891 7.81553 0.00310143 7.7661C0.00361167 7.75556 0.00422067 7.74298 0.00422067 7.72798L0.00422067 4.0849C0.00422067 3.74761 0.0124649 3.41389 0.0772707 3.08103C0.208656 2.40677 0.518389 1.77619 0.964516 1.26701C1.56593 0.580639 2.40329 0.135781 3.29335 0.0344859ZM1.7892 8.98393C1.78111 9.00238 1.78429 9.0364 1.78697 9.06497C1.78814 9.0774 1.7892 9.0888 1.7892 9.09743L1.7892 10.5936C1.7892 10.603 1.78819 10.6176 1.78699 10.6349C1.78309 10.6912 1.77728 10.775 1.79871 10.7905C1.81602 10.8029 1.87489 10.7974 1.91789 10.7933C1.93447 10.7918 1.94868 10.7905 1.95726 10.7905L3.11308 10.7905C3.18475 10.7905 3.25648 10.7909 3.32821 10.7913C3.47172 10.7922 3.61527 10.7931 3.75859 10.7905C4.02489 10.7856 4.28284 10.706 4.47213 10.5106C4.68635 10.2897 4.76293 9.96464 4.69776 9.66639C4.66807 9.53448 4.61082 9.41082 4.52632 9.30505C4.36417 9.10241 4.1227 8.99007 3.86697 8.96932C3.77465 8.96184 3.68166 8.96267 3.58888 8.9635C3.55958 8.96377 3.5303 8.96403 3.50106 8.96403L1.85364 8.96403C1.8361 8.96403 1.82438 8.96244 1.81582 8.96244C1.80283 8.96244 1.79713 8.96604 1.7892 8.98393ZM1.78877 11.9868L3.19595 11.9868C3.35309 11.9868 3.51033 11.9859 3.66757 11.9859C3.74619 11.9859 3.82482 11.9861 3.90354 11.9868C4.16586 11.9889 4.41255 12.0577 4.61145 12.245C4.85721 12.4765 4.96738 12.8294 4.91886 13.1704C4.87647 13.4687 4.70778 13.7364 4.46014 13.8897C4.25635 14.0159 4.03579 14.0306 3.80586 14.0306L2.03859 14.0306C2.02605 14.0306 2.00755 14.0319 1.98618 14.0333C1.9121 14.0382 1.80348 14.0455 1.78877 14.0116C1.78005 13.9915 1.7835 13.9531 1.78638 13.9211C1.78763 13.9073 1.78877 13.8946 1.78877 13.8851L1.78877 11.9868Z" id="path_2" />
    <path d="M3.13543 0.0511526C2.60427 0.139507 2.09443 0.348984 1.64889 0.657738L1.64889 0.657738C0.622359 1.36933 0.00810605 2.57417 0.00356619 3.84207L0.00356619 3.84207C0.00229925 4.21484 0.00356619 4.58762 0.00356619 4.9605L0.00356619 4.9605L0.00356619 7.33482L0.00356619 10.0953L0.00356619 12.3723L0.00356619 13.0595L0.00356619 13.2409C0.00356619 13.3112 0.00293272 13.2965 0.0809549 13.3345L0.0809549 13.3345C0.16774 13.3767 0.254947 13.4177 0.342577 13.4576L0.342577 13.4576C1.04214 13.7752 1.77992 14.0169 2.54135 14.1121L2.54135 14.1121C3.08866 14.1805 3.67314 14.1995 4.19005 13.9758L4.19005 13.9758C4.60413 13.7966 4.93417 13.4659 5.10372 13.0371L5.10372 13.0371C5.21279 12.7615 5.24404 12.4704 5.24404 12.1756L5.24404 12.1756L5.24404 8.90769L5.24404 8.17198L5.24404 7.9373C5.24404 7.91383 5.23105 7.84062 5.24404 7.82094L5.24404 7.82094C5.26019 7.79639 5.38815 7.81207 5.425 7.81207L5.425 7.81207L5.70394 7.81207L6.25389 7.81207L8.46132 7.81207L8.46132 7.87944L8.46132 11.1055C8.46132 11.4842 8.46206 11.8631 8.46132 12.2418L8.46132 12.2418C8.46058 12.683 8.39744 13.1259 8.22123 13.5314L8.22123 13.5314C8.04566 13.9357 7.76408 14.277 7.41609 14.5368L7.41609 14.5368C6.57189 15.1673 5.45329 15.3316 4.43309 15.3789L4.43309 15.3789C3.70323 15.4127 2.97041 15.3835 2.24372 15.3091L2.24372 15.3091C1.49274 15.2323 0.733005 15.1181 0.00356619 14.9167L0.00356619 14.9167L0.00356619 15.1783L0.00356619 16.9721L0.00356619 19.5892L0.00356619 21.9533L0.00356619 22.7055L0.00356619 22.9166C0.00356619 22.9278 -0.00445774 22.9833 0.00356619 22.9924L0.00356619 22.9924C0.0187694 23.0095 0.157077 22.9925 0.184421 22.9925L0.184421 22.9925L0.369289 22.9925L0.747786 22.9925L1.49612 22.9925L2.99596 22.9925L4.49644 22.9925C5.13255 22.9925 5.78502 23.0374 6.40677 22.8763L6.40677 22.8763C7.49401 22.5949 8.41782 21.8073 8.88806 20.7645L8.88806 20.7645C9.1462 20.1922 9.23077 19.5838 9.23077 18.9605L9.23077 18.9605L9.23077 17.9335L9.23077 16.2031L9.23077 13.9608L9.23077 11.4085L9.23077 8.71649L9.23077 6.08553L9.23077 3.71586L9.23077 1.7792L9.23077 0.476919L9.23077 0.000324435L8.85787 0.000324435L7.29922 0.000324435L5.73994 0.000324435L4.18541 0.000324435C4.11615 0.000324435 4.04699 0 3.97784 0L3.97784 0C3.69605 0 3.415 0.00465023 3.13543 0.0511526" id="path_3" />
    <path d="M3.46636 0.00947048C3.06637 0.0356219 2.67055 0.128712 2.29977 0.286052L2.29977 0.286052C1.48236 0.633338 0.802691 1.28153 0.402279 2.09481L0.402279 2.09481C0.140033 2.6273 0.007502 3.21921 0.00510182 3.81585L0.00510182 3.81585C0.0046844 3.91238 0.00510182 4.00892 0.00510182 4.10556L0.00510182 4.10556L0.00510182 5.79841L0.00510182 8.80787C0.0300428 8.7857 0.0556099 8.76385 0.0815944 8.74222L0.0815944 8.74222C0.173114 8.66581 0.268495 8.59435 0.366589 8.52741L0.366589 8.52741C0.977904 8.11082 1.69117 7.8775 2.40674 7.73975L2.40674 7.73975C2.98925 7.62761 3.5823 7.5794 4.17431 7.56767L4.17431 7.56767C4.75672 7.55626 5.3408 7.57671 5.92007 7.64139L5.92007 7.64139C6.51114 7.70725 7.09856 7.81002 7.67972 7.93852L7.67972 7.93852C7.7511 7.95434 7.82237 7.97048 7.89354 7.98727L7.89354 7.98727C7.93163 7.99631 8.07762 8.00858 8.09787 8.03872L8.09787 8.03872C8.11237 8.06024 8.09787 8.14612 8.09787 8.17098L8.09787 8.17098L8.09787 8.48135L8.09787 9.65149C8.01532 9.60855 7.93236 9.56648 7.84867 9.5258L7.84867 9.5258C7.21638 9.21747 6.54986 8.98845 5.85809 8.87588L5.85809 8.87588C4.9287 8.72446 3.877 8.72866 3.07441 9.30216L3.07441 9.30216C2.29977 9.85576 2.02866 10.8381 2.11235 11.7722L2.11235 11.7722C2.19385 12.6813 2.6813 13.4607 3.50195 13.8241L3.50195 13.8241C4.31279 14.1831 5.25366 14.1348 6.1028 13.9616L6.1028 13.9616C6.79948 13.8196 7.4637 13.5594 8.09787 13.2332L8.09787 13.2332L8.09787 13.3487L8.09787 14.7125C8.09787 14.7379 8.11258 14.8241 8.09787 14.8459L8.09787 14.8459C8.07804 14.8752 7.92996 14.8877 7.89354 14.8963L7.89354 14.8963C7.74536 14.9312 7.59655 14.9639 7.44753 14.9948L7.44753 14.9948C6.86199 15.1163 6.2704 15.2127 5.67536 15.2676L5.67536 15.2676C5.09285 15.3214 4.50449 15.332 3.92021 15.3092L3.92021 15.3092C3.32381 15.2862 2.72669 15.2228 2.14345 15.0895L2.14345 15.0895C1.37456 14.9139 0.609216 14.6118 0.00510182 14.0773L0.00510182 14.0773L0.00510182 14.3285L0.00510182 16.0849L0.00510182 18.7054L0.00510182 21.2566L0.00510182 22.7694C0.00510182 22.7873 -0.00637728 22.862 0.00510182 22.8764L0.00510182 22.8764C0.0300428 22.9076 0.237501 22.882 0.286131 22.882L0.286131 22.882L1.04354 22.882L2.5664 22.882L4.08123 22.882C4.61584 22.882 5.15984 22.9114 5.69321 22.8721L5.69321 22.8721C6.66037 22.8009 7.5763 22.3295 8.21391 21.5758L8.21391 21.5758C8.8246 20.8539 9.12587 19.9403 9.12587 18.9881L9.12587 18.9881L9.12587 18.1341L9.12587 16.5016L9.12587 14.2965L9.12587 11.7234L9.12587 8.99739L9.12587 6.30067L9.12587 3.85718L9.12587 1.85148L9.12587 0.498169L9.12587 0.00172191L8.8462 0.00172191L6.49476 0.00172191L4.1525 0.00172191C4.04178 0.00172191 3.93064 0 3.81961 0L3.81961 0C3.70169 0 3.58376 0.00193714 3.46636 0.00947048" id="path_4" />
    <clipPath id="clip_1">
      <use xlink:href="#path_1" />
    </clipPath>
    <clipPath id="mask_1">
      <use xlink:href="#path_2" />
    </clipPath>
    <clipPath id="mask_2">
      <use xlink:href="#path_3" />
    </clipPath>
    <clipPath id="mask_3">
      <use xlink:href="#path_4" />
    </clipPath>
  </defs>
  <g id="color/JCB">
    <g id="JCB">
      <g id="Rectangle-Copy-22">
        <use stroke="none" fill="#FFFFFF" xlink:href="#path_1" />
        <g clip-path="url(#clip_1)">
          <use xlink:href="#path_1" fill="none" stroke="#E6E7E8" stroke-width="2" />
        </g>
      </g>
      <g id="Page-1-Copy-2" transform="translate(18 12)">
        <g id="Group-3" transform="translate(20.76923 0)">
          <path d="M3.29335 0.0344859C3.52085 0.0085404 3.752 0.000648638 3.98378 0L4.04493 0C4.33077 0.000756744 4.61743 0.0111349 4.89941 0.0111349L7.75003 0.0111349C7.90124 0.0111349 8.05247 0.011219 8.20369 0.0113031C8.50614 0.0114713 8.80859 0.0116394 9.11095 0.0111349L9.12556 0.0111349L9.12556 18.6428C9.12556 18.746 9.12577 18.8492 9.12587 18.9523L9.12587 19.0205C9.12587 19.0671 9.12577 19.1138 9.12556 19.1604C9.12086 20.3651 8.57049 21.5129 7.63868 22.2349C6.9517 22.7673 6.14449 22.9951 5.2967 22.9951L0.134772 22.9951C0.128746 22.9951 0.117965 22.9959 0.105073 22.9968L0.105054 22.9968C0.0677103 22.9996 0.0126751 23.0037 0.00422067 22.9934C-0.00279531 22.9848 0.000555464 22.948 0.00278462 22.9236C0.00357275 22.9149 0.00422067 22.9078 0.00422067 22.904L0.00422067 15.2481C0.00422067 15.2408 0.00388953 15.2343 0.00359016 15.2285C0.00254504 15.208 0.00188711 15.1951 0.0170566 15.1855C0.0408379 15.1706 0.106005 15.1769 0.156252 15.1818C0.176563 15.1837 0.194436 15.1855 0.206152 15.1855L5.37267 15.1855C5.4112 15.1855 5.44975 15.1856 5.4883 15.1858C5.71472 15.1866 5.94125 15.1875 6.16641 15.1591C6.69185 15.0926 7.22271 14.8921 7.60299 14.4991C8.08585 14.0003 8.23821 13.2039 7.93933 12.5609C7.68679 12.0175 7.1577 11.6865 6.61264 11.5326C6.4344 11.4822 6.25167 11.4492 6.068 11.4309C6.06299 11.4305 6.05422 11.4305 6.044 11.4306C6.01906 11.4308 5.98514 11.4309 5.9771 11.423C5.94968 11.396 5.97777 11.3846 5.99716 11.3767C6.00043 11.3754 6.00344 11.3742 6.00591 11.373C6.04076 11.3562 6.09242 11.3578 6.13072 11.3495C6.19678 11.3355 6.26231 11.3189 6.32712 11.2997C6.91246 11.1259 7.42454 10.7072 7.59527 10.0827C7.7733 9.43227 7.56156 8.72515 7.04092 8.31521C6.67066 8.02376 6.2046 7.88873 5.74679 7.8456C5.3875 7.81183 5.02515 7.81503 4.66385 7.81821C4.55784 7.81915 4.45193 7.82008 4.34621 7.82008L0.0754966 7.82008C0.000487368 7.82008 0.000707891 7.81553 0.00310143 7.7661C0.00361167 7.75556 0.00422067 7.74298 0.00422067 7.72798L0.00422067 4.0849C0.00422067 3.74761 0.0124649 3.41389 0.0772707 3.08103C0.208656 2.40677 0.518389 1.77619 0.964516 1.26701C1.56593 0.580639 2.40329 0.135781 3.29335 0.0344859ZM1.7892 8.98393C1.78111 9.00238 1.78429 9.0364 1.78697 9.06497C1.78814 9.0774 1.7892 9.0888 1.7892 9.09743L1.7892 10.5936C1.7892 10.603 1.78819 10.6176 1.78699 10.6349C1.78309 10.6912 1.77728 10.775 1.79871 10.7905C1.81602 10.8029 1.87489 10.7974 1.91789 10.7933C1.93447 10.7918 1.94868 10.7905 1.95726 10.7905L3.11308 10.7905C3.18475 10.7905 3.25648 10.7909 3.32821 10.7913C3.47172 10.7922 3.61527 10.7931 3.75859 10.7905C4.02489 10.7856 4.28284 10.706 4.47213 10.5106C4.68635 10.2897 4.76293 9.96464 4.69776 9.66639C4.66807 9.53448 4.61082 9.41082 4.52632 9.30505C4.36417 9.10241 4.1227 8.99007 3.86697 8.96932C3.77465 8.96184 3.68166 8.96267 3.58888 8.9635C3.55958 8.96377 3.5303 8.96403 3.50106 8.96403L1.85364 8.96403C1.8361 8.96403 1.82438 8.96244 1.81582 8.96244C1.80283 8.96244 1.79713 8.96604 1.7892 8.98393ZM1.78877 11.9868L3.19595 11.9868C3.35309 11.9868 3.51033 11.9859 3.66757 11.9859C3.74619 11.9859 3.82482 11.9861 3.90354 11.9868C4.16586 11.9889 4.41255 12.0577 4.61145 12.245C4.85721 12.4765 4.96738 12.8294 4.91886 13.1704C4.87647 13.4687 4.70778 13.7364 4.46014 13.8897C4.25635 14.0159 4.03579 14.0306 3.80586 14.0306L2.03859 14.0306C2.02605 14.0306 2.00755 14.0319 1.98618 14.0333C1.9121 14.0382 1.80348 14.0455 1.78877 14.0116C1.78005 13.9915 1.7835 13.9531 1.78638 13.9211C1.78763 13.9073 1.78877 13.8946 1.78877 13.8851L1.78877 11.9868Z" id="Clip-2" fill="url(#gradient_1)" fill-rule="evenodd" stroke="none" />
        </g>
        <g id="Group-6">
          <path d="M3.13543 0.0511526C2.60427 0.139507 2.09443 0.348984 1.64889 0.657738L1.64889 0.657738C0.622359 1.36933 0.00810605 2.57417 0.00356619 3.84207L0.00356619 3.84207C0.00229925 4.21484 0.00356619 4.58762 0.00356619 4.9605L0.00356619 4.9605L0.00356619 7.33482L0.00356619 10.0953L0.00356619 12.3723L0.00356619 13.0595L0.00356619 13.2409C0.00356619 13.3112 0.00293272 13.2965 0.0809549 13.3345L0.0809549 13.3345C0.16774 13.3767 0.254947 13.4177 0.342577 13.4576L0.342577 13.4576C1.04214 13.7752 1.77992 14.0169 2.54135 14.1121L2.54135 14.1121C3.08866 14.1805 3.67314 14.1995 4.19005 13.9758L4.19005 13.9758C4.60413 13.7966 4.93417 13.4659 5.10372 13.0371L5.10372 13.0371C5.21279 12.7615 5.24404 12.4704 5.24404 12.1756L5.24404 12.1756L5.24404 8.90769L5.24404 8.17198L5.24404 7.9373C5.24404 7.91383 5.23105 7.84062 5.24404 7.82094L5.24404 7.82094C5.26019 7.79639 5.38815 7.81207 5.425 7.81207L5.425 7.81207L5.70394 7.81207L6.25389 7.81207L8.46132 7.81207L8.46132 7.87944L8.46132 11.1055C8.46132 11.4842 8.46206 11.8631 8.46132 12.2418L8.46132 12.2418C8.46058 12.683 8.39744 13.1259 8.22123 13.5314L8.22123 13.5314C8.04566 13.9357 7.76408 14.277 7.41609 14.5368L7.41609 14.5368C6.57189 15.1673 5.45329 15.3316 4.43309 15.3789L4.43309 15.3789C3.70323 15.4127 2.97041 15.3835 2.24372 15.3091L2.24372 15.3091C1.49274 15.2323 0.733005 15.1181 0.00356619 14.9167L0.00356619 14.9167L0.00356619 15.1783L0.00356619 16.9721L0.00356619 19.5892L0.00356619 21.9533L0.00356619 22.7055L0.00356619 22.9166C0.00356619 22.9278 -0.00445774 22.9833 0.00356619 22.9924L0.00356619 22.9924C0.0187694 23.0095 0.157077 22.9925 0.184421 22.9925L0.184421 22.9925L0.369289 22.9925L0.747786 22.9925L1.49612 22.9925L2.99596 22.9925L4.49644 22.9925C5.13255 22.9925 5.78502 23.0374 6.40677 22.8763L6.40677 22.8763C7.49401 22.5949 8.41782 21.8073 8.88806 20.7645L8.88806 20.7645C9.1462 20.1922 9.23077 19.5838 9.23077 18.9605L9.23077 18.9605L9.23077 17.9335L9.23077 16.2031L9.23077 13.9608L9.23077 11.4085L9.23077 8.71649L9.23077 6.08553L9.23077 3.71586L9.23077 1.7792L9.23077 0.476919L9.23077 0.000324435L8.85787 0.000324435L7.29922 0.000324435L5.73994 0.000324435L4.18541 0.000324435C4.11615 0.000324435 4.04699 0 3.97784 0L3.97784 0C3.69605 0 3.415 0.00465023 3.13543 0.0511526" id="Clip-5" fill="url(#gradient_2)" stroke="none" />
        </g>
        <g id="Group-9" transform="translate(10.38461 0)">
          <path d="M3.46636 0.00947048C3.06637 0.0356219 2.67055 0.128712 2.29977 0.286052L2.29977 0.286052C1.48236 0.633338 0.802691 1.28153 0.402279 2.09481L0.402279 2.09481C0.140033 2.6273 0.007502 3.21921 0.00510182 3.81585L0.00510182 3.81585C0.0046844 3.91238 0.00510182 4.00892 0.00510182 4.10556L0.00510182 4.10556L0.00510182 5.79841L0.00510182 8.80787C0.0300428 8.7857 0.0556099 8.76385 0.0815944 8.74222L0.0815944 8.74222C0.173114 8.66581 0.268495 8.59435 0.366589 8.52741L0.366589 8.52741C0.977904 8.11082 1.69117 7.8775 2.40674 7.73975L2.40674 7.73975C2.98925 7.62761 3.5823 7.5794 4.17431 7.56767L4.17431 7.56767C4.75672 7.55626 5.3408 7.57671 5.92007 7.64139L5.92007 7.64139C6.51114 7.70725 7.09856 7.81002 7.67972 7.93852L7.67972 7.93852C7.7511 7.95434 7.82237 7.97048 7.89354 7.98727L7.89354 7.98727C7.93163 7.99631 8.07762 8.00858 8.09787 8.03872L8.09787 8.03872C8.11237 8.06024 8.09787 8.14612 8.09787 8.17098L8.09787 8.17098L8.09787 8.48135L8.09787 9.65149C8.01532 9.60855 7.93236 9.56648 7.84867 9.5258L7.84867 9.5258C7.21638 9.21747 6.54986 8.98845 5.85809 8.87588L5.85809 8.87588C4.9287 8.72446 3.877 8.72866 3.07441 9.30216L3.07441 9.30216C2.29977 9.85576 2.02866 10.8381 2.11235 11.7722L2.11235 11.7722C2.19385 12.6813 2.6813 13.4607 3.50195 13.8241L3.50195 13.8241C4.31279 14.1831 5.25366 14.1348 6.1028 13.9616L6.1028 13.9616C6.79948 13.8196 7.4637 13.5594 8.09787 13.2332L8.09787 13.2332L8.09787 13.3487L8.09787 14.7125C8.09787 14.7379 8.11258 14.8241 8.09787 14.8459L8.09787 14.8459C8.07804 14.8752 7.92996 14.8877 7.89354 14.8963L7.89354 14.8963C7.74536 14.9312 7.59655 14.9639 7.44753 14.9948L7.44753 14.9948C6.86199 15.1163 6.2704 15.2127 5.67536 15.2676L5.67536 15.2676C5.09285 15.3214 4.50449 15.332 3.92021 15.3092L3.92021 15.3092C3.32381 15.2862 2.72669 15.2228 2.14345 15.0895L2.14345 15.0895C1.37456 14.9139 0.609216 14.6118 0.00510182 14.0773L0.00510182 14.0773L0.00510182 14.3285L0.00510182 16.0849L0.00510182 18.7054L0.00510182 21.2566L0.00510182 22.7694C0.00510182 22.7873 -0.00637728 22.862 0.00510182 22.8764L0.00510182 22.8764C0.0300428 22.9076 0.237501 22.882 0.286131 22.882L0.286131 22.882L1.04354 22.882L2.5664 22.882L4.08123 22.882C4.61584 22.882 5.15984 22.9114 5.69321 22.8721L5.69321 22.8721C6.66037 22.8009 7.5763 22.3295 8.21391 21.5758L8.21391 21.5758C8.8246 20.8539 9.12587 19.9403 9.12587 18.9881L9.12587 18.9881L9.12587 18.1341L9.12587 16.5016L9.12587 14.2965L9.12587 11.7234L9.12587 8.99739L9.12587 6.30067L9.12587 3.85718L9.12587 1.85148L9.12587 0.498169L9.12587 0.00172191L8.8462 0.00172191L6.49476 0.00172191L4.1525 0.00172191C4.04178 0.00172191 3.93064 0 3.81961 0L3.81961 0C3.70169 0 3.58376 0.00193714 3.46636 0.00947048" id="Clip-8" fill="url(#gradient_3)" stroke="none" />
        </g>
      </g>
    </g>
  </g>
</svg>