<?xml version="1.0" encoding="utf-8"?>
<svg width="66px" height="46px" viewBox="0 0 66 46" version="1.1" xmlns:xlink="http://www.w3.org/1999/xlink" xmlns="http://www.w3.org/2000/svg">
  <desc>Created with Lunacy</desc>
  <g id="color/Mastercard">
    <g id="Mastercard">
      <path d="M2.999 0L63.001 0C64.6573 0 66 1.3427 66 2.999L66 43.001C66 44.6573 64.6573 46 63.001 46L2.999 46C1.3427 46 0 44.6573 0 43.001L0 2.999C0 1.3427 1.3427 0 2.999 0Z" id="Rectangle-Copy-4" fill="#262626" stroke="none" />
      <g id="mc_symbol" transform="translate(13 10)">
        <g id="Group" opacity="0">
          <path d="M0 0L39.8152 0L39.8152 25.9701L0 25.9701L0 0Z" id="Rectangle" fill="#FFFFFF" stroke="none" />
        </g>
        <path d="M0 0L10.503 0L10.503 16.9179L0 16.9179L0 0Z" transform="translate(14.65758 4.524598)" id="Rectangle" fill="#FF5F00" stroke="none" />
        <path d="M13.4832 10.7573C13.4806 7.45649 15.0171 4.3378 17.6499 2.29982C13.1771 -1.16683 6.75401 -0.66188 2.89458 3.4598C-0.964859 7.58149 -0.964859 13.9361 2.89458 18.0578C6.75401 22.1795 13.1771 22.6844 17.6499 19.2178C15.0162 17.1791 13.4797 14.0591 13.4832 10.7573Z" transform="translate(2.25615 2.227762)" id="Path" fill="#EB001B" stroke="none" />
        <path d="M0.23 0.145455L0.23 0.848485L0.156667 0.848485L0.156667 0.145455L0 0.145455L0 0L0.396667 0L0.396667 0.145455L0.23 0.145455ZM1 0L1 0.848485L0.916667 0.848485L0.916667 0.206061L0.786667 0.757576L0.696667 0.757576L0.566667 0.206061L0.566667 0.848485L0.48 0.848485L0.48 0L0.6 0L0.74 0.606061L0.88 0L1 0Z" transform="translate(36.30606 19.23402)" id="Shape" fill="#F79E1B" fill-rule="evenodd" stroke="none" />
        <path d="M17.6515 10.7614C17.6514 14.8806 15.2665 18.6381 11.5096 20.4382C7.75276 22.2382 3.28351 21.7648 0 19.2189C2.6317 17.1792 4.16827 14.0609 4.16827 10.76C4.16827 7.45897 2.6317 4.34069 0 2.30099C3.28351 -0.244888 7.75276 -0.71834 11.5096 1.08171C15.2665 2.88176 17.6514 6.63929 17.6515 10.7585L17.6515 10.7614Z" transform="translate(19.90606 2.22361)" id="Path" fill="#F79E1B" stroke="none" />
      </g>
    </g>
  </g>
</svg>