<?xml version="1.0" encoding="utf-8"?>
<svg width="101px" height="61px" viewBox="0 0 101 61" version="1.1" xmlns:xlink="http://www.w3.org/1999/xlink" xmlns="http://www.w3.org/2000/svg">
  <desc>Created with Lunacy</desc>
  <g id="UnionPay-dark">
    <path d="M3.999 0L96.001 0C98.2096 0 100 1.79041 100 3.999L100 56.001C100 58.2096 98.2096 60 96.001 60L3.999 60C1.79041 60 0 58.2096 0 56.001L0 3.999C0 1.79041 1.79041 0 3.999 0Z" id="Rectangle" fill="#FFFFFF" stroke="none" />
    <path d="M18.58 3.19744e-14C15.4156 0.100542 11.546 2.64943 10.8412 5.79241C10.8412 5.79241 0.145816 54.1988 0.145816 54.1988C-0.558949 57.3711 1.35836 59.9525 4.44277 60L46.3055 61.0895C48.5038 60.8768 50.1295 58.2123 50.2409 56.0065C50.8875 43.2115 52.649 4.06191 50 4L49.9337 3.91434C48.7963 2.02119 47.9959 1.23075 46.1081 0.084421L46 0" transform="translate(50 0)" id="path22" fill="#01798A" stroke="none" />
    <path d="M3.999 0C15.0167 0 45 0 45 0C45 0 45 60 45 60L3.999 60C1.79041 60 0 58.2096 0 56.001L0 3.999C0 1.79041 1.79041 0 3.999 0Z" id="Rectangle-19" fill="#DD0228" stroke="none" />
    <path d="M41.0971 5.7978C41.8019 2.65512 45.6715 0.106493 48.7784 0.00914328L39.7863 0.00318201L18.5853 0C15.4697 0.0651667 11.5496 2.63168 10.8452 5.7978L0.146618 54.1994C-0.560747 57.3714 1.35936 59.9525 4.44183 60L34.6987 60C31.6143 59.9525 29.697 57.3714 30.4017 54.1994L41.0971 5.7978Z" transform="translate(20 0)" id="path20" fill="#024381" stroke="none" />
    <path d="M12.892 0.0385655L12.7789 1.03311C12.7789 1.03311 14.1333 0 15.3633 0L19.9085 0L18.1703 6.39292C18.0262 7.12378 17.4081 7.48721 16.3163 7.48721L11.1646 7.48721L9.95791 11.9763C9.88837 12.2168 9.98666 12.3402 10.2466 12.3402L11.2602 12.3402L10.8876 13.7336L8.31062 13.7336C7.32146 13.7336 6.91002 13.4314 7.0732 12.8243L10.4832 0.0385655L12.892 0.0385655ZM1.88111 1.96875L2.27389 1.96875C2.63482 1.96875 2.87764 1.84571 2.99148 1.60208L4.0121 0.0501328L6.74529 0.0501328L6.17535 1.07088L9.45246 1.07088L9.03675 2.63487L5.13724 2.63487C4.68812 3.32135 4.13526 3.64409 3.47052 3.60584L1.43937 3.60584L1.88111 1.96875ZM12.6841 1.84571L16.741 1.84571L16.4146 3.05739C16.4146 3.05739 15.1294 3.03947 14.0035 3.05739C12.8745 3.07512 12.1989 3.57071 12.1989 3.57071L12.6841 1.84571ZM8.6121 4.2103L1.43237 4.2103L0.97587 5.90921L2.69271 5.90921L2.25252 7.54907L0.456233 7.54907L0 9.24781L1.79602 9.24781L0.961495 12.3402C0.700102 13.3111 0.985969 13.7955 1.81933 13.7955L6.21575 13.7955L6.64001 12.2168L4.35011 12.2168C3.76695 12.2582 3.55443 12.076 3.71605 11.671L4.36876 9.24781L7.17849 9.24781L7.63616 7.54907L4.82643 7.54907L5.267 5.90921L8.15443 5.90921L8.6121 4.2103ZM15.2712 5.84736C15.5712 5.88868 15.739 5.76809 15.7592 5.48349L16.0075 4.57417L11.9444 4.57417L11.6037 5.84736L15.2712 5.84736ZM14.8726 7.91282L12.5306 7.91282L12.3515 12.6424C12.3434 13.4519 12.73 13.8336 13.5183 13.7955L16.3307 13.7955L16.7091 12.4018L15.5366 12.4018C15.0199 12.4018 14.7689 12.2582 14.7918 11.9763L14.7976 10.2161L16.0451 10.2161C16.9923 10.1748 17.5751 9.75233 17.795 8.94249L18.0549 7.97155L16.1085 7.97155L15.9239 8.63767C15.9239 8.83998 15.7677 8.94249 15.4527 8.94249L14.8291 8.94249L14.8726 7.91282Z" transform="translate(42.10587 33.20645)" id="path24" fill="#FFFFFF" fill-rule="evenodd" stroke="none" />
    <path d="M11.0944 9.32953C10.7767 10.9109 10.0404 12.1255 8.89816 12.9881C7.76635 13.836 6.30651 14.2613 4.51923 14.2613C2.83724 14.2613 1.60413 13.827 0.817237 12.9557C0.271492 12.3366 0 11.5504 0 10.5998C0 10.2067 0.0463102 9.78423 0.138738 9.32953L2.04304 3.15789e-07L4.91912 3.15789e-07L3.04074 9.2239C2.98293 9.47921 2.95985 9.71684 2.96288 9.93103C2.95985 10.4035 3.07532 10.7906 3.3092 11.0927C3.64993 11.5417 4.20294 11.7645 4.97251 11.7645C5.85746 11.7645 6.58666 11.5447 7.15261 11.1015C7.71868 10.6614 8.08823 10.0367 8.25424 9.2239L10.1385 0L13 0L11.0944 9.32953" transform="translate(15.16293 15.39829)" id="path28" fill="#FFFFFF" stroke="none" />
    <path d="M1.75997 3.03343L4.01245 3.03343L2.24805 11.3598L0 11.3598L1.75997 3.03343M2.469 -2.24382e-15L4.74153 -2.24382e-15L4.31705 2.02105L2.04467 2.02105L2.469 -2.24382e-15" transform="translate(36.57597 18.02408)" id="path34" fill="#FFFFFF" stroke="none" />
    <path d="M0.889462 7.9097C0.30032 7.33765 0.00287407 6.56605 0 5.58616C0 5.41883 0.0100233 5.22825 0.0318584 5.01979C0.0535748 4.80853 0.0810439 4.60315 0.119895 4.41257C0.386998 3.06012 0.955937 1.98632 1.83223 1.19408C2.70716 0.39904 3.76275 0 4.99861 0C6.01069 0 6.81336 0.287567 7.40118 0.862581C7.98861 1.44063 8.28311 2.22087 8.28311 3.2128C8.28311 3.3827 8.27028 3.57932 8.24853 3.79054C8.2225 4.00472 8.19103 4.21011 8.15451 4.41257C7.89343 5.74449 7.3262 6.80661 6.44971 7.5842C5.57323 8.36751 4.52074 8.75744 3.29343 8.75744C2.27708 8.75744 1.47713 8.47591 0.889462 7.9097M5.18199 6.26088C5.57906 5.82375 5.86345 5.16055 6.03672 4.27764C6.06275 4.1398 6.08567 3.99596 6.10005 3.85224C6.11442 3.71132 6.12025 3.57932 6.12025 3.45904C6.12025 2.94557 5.99166 2.54668 5.73329 2.26496C5.47649 1.98032 5.11128 1.83967 4.63924 1.83967C4.01529 1.83967 3.50711 2.06234 3.10888 2.50843C2.70716 2.95453 2.42277 3.62925 2.24366 4.527C2.21919 4.66484 2.19899 4.80284 2.18034 4.93776C2.16596 5.07561 2.16169 5.20469 2.16441 5.322C2.16441 5.83255 2.29301 6.22575 2.55137 6.50436C2.80817 6.78316 3.17182 6.921 3.65008 6.921C4.27676 6.921 4.78493 6.70097 5.18199 6.26088" transform="translate(41.6928 20.84041)" id="path36" fill="#FFFFFF" stroke="none" />
    <path d="M9.04382 0.0131145L0 0L8.99215 0.028107C9.00924 0.028107 9.02634 0.013116 9.04382 0.013116" transform="translate(59.75052 0.1421084)" id="path14" fill="#E02F41" stroke="none" />
    <path d="M16.201 0.041244L0.124325 0C0.0839205 0 0.0419604 0.0131145 0 0.026253L16.201 0.0412455" transform="translate(43.54951 0.1334204)" id="path18" fill="#2E4F7D" stroke="none" />
    <path d="M12.1655 0L14.7472 0L14.8568 0.967857C14.8397 1.21425 14.9838 1.33192 15.29 1.33192L15.7461 1.33192L15.2845 2.97178L13.387 2.97178C12.6624 3.00987 12.2898 2.72846 12.2553 2.12092L12.1655 0ZM3.06965 2.06234L3.61279 0.120237L6.3588 0.120237L6.2403 0.832935C6.2403 0.832935 7.64361 0.120237 8.65414 0.120237L12.0497 0.120237L11.5101 2.06234L10.9759 2.06234L8.41442 11.2219L8.94863 11.2219L8.44046 13.041L7.90625 13.041L7.68402 13.8301L5.02464 13.8301L5.24649 13.041L0 13.041L0.511285 11.2219L1.03694 11.2219L3.60075 2.06234L3.06965 2.06234ZM5.33351 4.54129L6.03245 2.06234L8.08535 2.06234C8.08535 2.06234 7.78776 3.07737 7.56008 3.94303C6.52936 4.07503 5.33351 4.54129 5.33351 4.54129ZM19.7715 3.51762L11.4091 3.51762L10.9153 5.27803L13.8058 5.27803L13.3466 6.9148L10.4588 6.9148L9.96537 8.67233L12.6279 8.67233L10.5629 11.7059C10.329 11.9904 10.0695 12.1312 9.75752 12.1312L8.99797 12.1312L8.52438 13.8301L10.9588 13.8301C11.6053 13.8713 12.0847 13.6071 12.3967 13.041L13.7161 11.0372L14.1003 12.9207C14.1353 13.5279 14.5623 13.8096 15.3882 13.7683L16.9823 13.7683L17.4555 12.0698L17.0052 12.0698C16.6991 12.0698 16.52 11.9701 16.48 11.7647L16.1451 9.70236L14.6951 9.70236L15.3653 8.67233L18.3277 8.67233L18.8215 6.9148L16.1618 6.9148L16.6183 5.27803L19.2808 5.27803L19.7715 3.51762ZM5.00988 5.70332L4.30862 8.29978C4.30862 8.29978 5.63383 7.63674 6.54335 7.58092C6.80598 6.57742 7.06901 5.70332 7.06901 5.70332L5.00988 5.70332ZM6.04954 9.33845L5.52389 11.2219L3.47137 11.2219L3.99975 9.33845L6.04954 9.33845Z" transform="translate(61.52059 33.18335)" id="path26" fill="#FFFFFF" fill-rule="evenodd" stroke="none" />
    <path d="M1.63871 0.211263L3.67005 0.211263L3.43772 1.4141L3.72926 1.07088C4.38776 0.355104 5.18755 0 6.13183 0C6.98656 0 7.60302 0.252435 7.99001 0.759868C8.37107 1.2675 8.47503 1.96875 8.29476 2.86942L7.17565 8.54345L5.08797 8.54345L6.09857 3.40046C6.2027 2.86942 6.17387 2.4733 6.0133 2.21795C5.8547 1.96275 5.55131 1.83675 5.11392 1.83675C4.57685 1.83675 4.12489 2.00668 3.75673 2.34422C3.38702 2.68453 3.14315 3.15699 3.02326 3.75833L2.09203 8.54345L0 8.54345L1.63871 0.211263" transform="translate(27.26788 20.84333)" id="path30" fill="#FFFFFF" stroke="none" />
    <path d="M1.63836 0.211263L3.67145 0.211263L3.44068 1.4141L3.72896 1.07088C4.38787 0.355104 5.19054 0 6.13191 0C6.98664 0 7.60438 0.252435 7.98823 0.759868C8.36703 1.2675 8.47659 1.96875 8.29166 2.86942L7.17701 8.54345L5.08642 8.54345L6.09733 3.40046C6.20106 2.86942 6.17231 2.4733 6.01341 2.21795C5.84868 1.96275 5.55108 1.83675 5.11556 1.83675C4.57825 1.83675 4.12796 2.00668 3.75537 2.34422C3.38551 2.68453 3.14036 3.15699 3.02497 3.75833L2.08943 8.54345L0 8.54345L1.63836 0.211263" transform="translate(50.56373 20.84333)" id="path32" fill="#FFFFFF" stroke="none" />
    <path d="M2.7262 0L8.6285 0C9.76335 0 10.641 0.261315 11.2444 0.774473C11.845 1.29395 12.1457 2.03921 12.1457 3.01026L12.1457 3.03947C12.1457 3.22421 12.1337 3.43263 12.1166 3.65842C12.0874 3.88145 12.0497 4.10724 12.0012 4.34211C11.7413 5.62717 11.1375 6.65996 10.2051 7.44328C9.26916 8.22363 8.16073 8.61683 6.88446 8.61683L3.71924 8.61683L2.74058 13.4959L0 13.4959L2.7262 3.15789e-07M4.20139 6.26984L6.82657 6.26984C7.51075 6.26984 8.0535 6.10824 8.44939 5.78862C8.84218 5.46588 9.1021 4.97309 9.24623 4.30421C9.26916 4.18066 9.28353 4.06934 9.30101 3.96671C9.30995 3.87 9.32122 3.7729 9.32122 3.67934C9.32122 3.20092 9.15415 2.85474 8.81887 2.63763C8.48397 2.41737 7.9587 2.31198 7.23062 2.31198L5.00133 2.31198L4.20139 6.26984" transform="translate(59.52518 15.89092)" id="path38" fill="#FFFFFF" stroke="none" />
    <path d="M5.93959 9.9401C5.07321 11.8117 4.24762 12.903 3.76275 13.4106C3.27711 13.9125 2.31593 15.0802 0 14.992L0.199308 13.5634C2.14809 12.9531 3.20213 10.2038 3.80277 8.98642L3.08674 0.0205247L4.59417 0L5.85878 0L5.99476 5.62425L8.36508 0L10.7649 0L5.93959 9.9401" transform="translate(77.99745 21.05751)" id="path40" fill="#FFFFFF" stroke="none" />
    <path d="M6.88326 0.217461L5.92985 0.883579C4.9337 0.0915012 4.02419 -0.398525 2.26889 0.428724C-0.122417 1.55526 -2.12054 10.1957 4.46321 7.34972L4.83851 7.8015L7.42873 7.86904L9.12964 0.0179219L6.88326 0.217461M5.41041 4.50975C4.99431 5.75672 4.06498 6.58105 3.3373 6.34638C2.60961 6.11755 2.3497 4.91451 2.77123 3.66478C3.18694 2.41488 4.12248 1.59347 4.84434 1.82818C5.57203 2.05701 5.83466 3.25986 5.41041 4.50975" transform="translate(70.34338 21.51774)" id="path42" fill="#FFFFFF" stroke="none" />
  </g>
</svg>