<?xml version="1.0" encoding="utf-8"?>
<svg width="66px" height="46px" viewBox="0 0 66 46" version="1.1" xmlns:xlink="http://www.w3.org/1999/xlink" xmlns="http://www.w3.org/2000/svg">
  <desc>Created with Lunacy</desc>
  <g id="color/Visa">
    <g id="Visa">
      <path d="M2.999 0L63.001 0C64.6573 0 66 1.3427 66 2.999L66 43.001C66 44.6573 64.6573 46 63.001 46L2.999 46C1.3427 46 0 44.6573 0 43.001L0 2.999C0 1.3427 1.3427 0 2.999 0Z" id="Rectangle-Copy-4" fill="#0742A6" stroke="none" />
      <g id="Visa_Inc._logo" transform="translate(11 16)">
        <path d="M3.53969 13.3321L0 13.3321L2.21398 0L5.75348 0L3.53969 13.3321Z" transform="translate(15.48265 0.4118765)" id="polygon9" fill="#FFFFFF" stroke="none" />
        <path d="M10.6181 0.567601C9.91993 0.297844 8.81256 0 7.44329 0C3.94773 0 1.48618 1.81534 1.47108 4.41074C1.44205 6.32561 3.23348 7.38918 4.57332 8.02766C5.94278 8.68009 6.4083 9.10593 6.4083 9.68748C6.39437 10.5806 5.3017 10.9923 4.28259 10.9923C2.86938 10.9923 2.11216 10.7801 0.961429 10.2832L0.495329 10.0702L0 13.0629C0.830194 13.4313 2.35973 13.7581 3.94773 13.7725C7.66182 13.7725 10.0798 11.9852 10.1085 9.21941C10.1226 7.70173 9.17665 6.53881 7.13726 5.58854C5.89923 4.97852 5.14104 4.5672 5.14104 3.94304C5.15556 3.37563 5.78232 2.79446 7.17985 2.79446C8.33058 2.76599 9.17607 3.03537 9.81657 3.30494L10.1367 3.44651L10.6181 0.567601L10.6181 0.567601L10.6181 0.567601Z" transform="translate(21.23594 0.1702079)" id="path11" fill="#FFFFFF" stroke="none" />
        <path d="M7.10784 0L9.8458 0L12.7014 13.3319L9.42402 13.3319C9.42402 13.3319 9.10329 11.8001 9.00167 11.332L4.45699 11.332C4.32556 11.6864 3.7141 13.3319 3.7141 13.3319L0 13.3319L5.25776 1.10617C5.62205 0.240915 6.26352 0 7.10784 0ZM6.8897 4.8788C6.8897 4.8788 5.768 7.84311 5.47649 8.60902L8.41865 8.60902C8.27309 7.94245 7.60278 4.75118 7.60278 4.75118L7.35541 3.60241C7.18377 4.08982 6.88594 4.87828 6.88921 4.87953L6.8897 4.8788Z" transform="translate(31.08212 0.4118765)" id="path13" fill="#FFFFFF" fill-rule="evenodd" stroke="none" />
        <path d="M8.7392 0L5.27267 9.09123L4.89386 7.24742C4.25298 5.11991 2.24301 2.80841 0 1.65907L3.17521 13.318L6.91834 13.318L12.4821 6.69719e-16L8.7392 6.69719e-16L8.7392 6.69719e-16L8.7392 0Z" transform="translate(3.786966 0.4118765)" id="path15" fill="#FFFFFF" stroke="none" />
        <path d="M5.75329 0L0.0582626 0L0 0.269379C4.44247 1.37574 7.38464 4.04258 8.59344 7.24799L7.35541 1.12069C7.15159 0.269191 6.52522 0.0280879 5.75329 0L5.75329 0Z" transform="translate(0.08738832 0.4118765)" id="path17" fill="#FFFFFF" stroke="none" />
      </g>
    </g>
  </g>
</svg>